<svg xmlns="http://www.w3.org/2000/svg" viewBox="0 0 490.8 490.8"><path d="M135.685 3.128c-4.237-4.093-10.99-3.975-15.083.262-3.992 4.134-3.992 10.687 0 14.82l227.115 227.136L120.58 472.46c-4.236 4.094-4.353 10.846-.26 15.084 4.092 4.237 10.844 4.354 15.082.262.09-.086.176-.173.262-.262L370.33 252.877c4.165-4.165 4.165-10.917 0-15.083L135.686 3.128z" fill="#F44336"/><path d="M128.133 490.68c-5.89.01-10.675-4.757-10.686-10.648-.005-2.84 1.123-5.565 3.134-7.57l227.137-227.116L120.58 18.232c-4.17-4.17-4.17-10.933 0-15.104 4.172-4.17 10.934-4.17 15.105 0l234.667 234.667c4.164 4.165 4.164 10.917 0 15.083L135.685 487.544c-2 2.007-4.718 3.136-7.552 3.136z"/></svg>